<svg width="208" height="86" viewBox="0 0 208 86" fill="none" xmlns="http://www.w3.org/2000/svg">
<path d="M0.325195 46.2369C0.325195 43.7754 0.325195 41.314 0.325195 39.3449C1.80891 29.0069 8.73293 23.5918 17.1407 18.6689C34.9453 8.33095 54.7282 3.4081 75.5002 1.93125C95.2831 0.454395 115.561 0.454395 135.343 1.93125C157.599 3.90039 178.866 9.8078 197.66 23.0995C206.562 29.9915 209.529 39.3449 206.562 49.6829C205.078 55.098 201.616 59.0363 197.165 61.99C187.768 68.882 177.382 73.8048 166.502 76.7585C145.235 82.6659 123.474 85.6196 101.218 85.1274C76.9839 84.6351 53.2445 81.6814 30.9887 72.8202C26.043 70.8511 21.5918 68.882 17.1407 65.9283C8.73293 61.99 1.80891 56.0826 0.325195 46.2369Z" fill="#28166F"/>
<path d="M67.0923 42.7909C64.1249 46.7292 62.1466 50.1752 58.6846 52.1443C54.728 54.6057 51.266 52.6366 50.7714 48.206C50.2769 43.2832 52.7497 38.8526 53.2443 34.4221C53.7389 32.9452 54.728 32.9452 55.7171 32.9452C57.2009 33.4375 57.6954 33.9298 57.2009 35.4066C56.2117 38.8526 55.7171 42.2986 54.728 45.7446C54.728 47.2215 54.728 48.6983 56.2117 49.1906C57.6954 50.1752 59.1792 48.6983 59.6737 48.206C63.6303 44.2678 66.5977 39.8372 68.576 34.4221C69.0706 32.4529 70.0598 30.9761 72.038 31.4684C74.5109 32.4529 73.0272 34.4221 73.0272 35.4066C72.5326 37.3758 72.038 39.3449 72.038 41.314C71.5435 43.7755 70.5543 47.2215 73.5218 48.206C75.9946 49.1906 77.9729 46.2369 79.4566 44.76C81.4349 42.2986 83.9078 39.3449 84.4024 35.8989C84.8969 33.4375 86.3806 30.4838 89.3481 31.4684C92.8101 32.9452 90.3372 34.9143 88.8535 36.8835C87.3698 39.3449 89.8427 41.314 90.8318 42.7909C92.3155 45.2523 93.3047 42.7909 94.7884 42.2986C96.2721 41.314 97.7558 40.3295 99.2395 38.8526C100.723 37.3758 101.712 35.4066 101.712 33.9298C101.218 31.4684 98.2504 33.4375 95.283 31.9606C102.207 31.4684 104.185 25.5609 110.615 22.6072C109.131 25.5609 108.636 27.0378 107.647 29.4992C112.593 29.4992 117.044 29.4992 122.484 29.4992C118.528 33.4375 115.066 32.9452 112.098 32.4529C107.153 31.9606 105.174 33.9298 104.68 38.3603C104.185 38.8526 104.185 39.8372 104.185 40.3295C104.185 43.2832 102.207 46.7292 105.174 49.1906C108.636 51.652 110.615 47.2215 114.077 45.7446C112.593 51.1597 108.636 53.6212 104.68 53.1289C98.745 52.6366 99.7341 47.2215 99.7341 42.2986C96.7667 44.2678 93.3047 44.76 93.7992 49.6829C94.2938 52.6366 91.3264 54.6057 88.8535 55.5903C86.3806 56.5749 82.9186 57.0672 81.4349 54.1134C79.4566 51.1597 82.9186 49.1906 84.8969 48.6983C89.8427 46.7292 87.8644 44.2678 85.3915 41.314C83.4132 43.7755 81.9295 45.7446 80.4458 47.7137C77.9729 50.1752 75.5001 53.1289 71.5435 52.1443C67.0923 50.6675 68.0815 46.7292 67.0923 42.7909Z" fill="#FFFA00"/>
<path d="M62.6413 17.1921C54.2335 16.6998 53.739 17.1921 52.2552 25.561C50.7715 32.4529 49.2878 39.8372 47.3095 46.7292C45.8258 52.1443 42.8584 57.0672 37.9126 60.0209C33.9561 62.4823 29.9995 63.4669 25.5483 61.0054C21.5917 59.0363 20.108 56.5749 24.5592 52.6366C26.0429 57.0672 29.0103 59.5286 33.9561 58.544C38.9018 57.5595 40.3855 53.6212 41.3746 49.6829C43.8475 39.8372 45.8258 29.4992 47.8041 19.6535C45.3312 18.1767 40.8801 21.6227 40.3855 15.7153C47.8041 17.6844 55.7173 10.3001 62.6413 17.1921Z" fill="#FFFA00"/>
<path d="M166.501 24.0841C166.007 26.0532 164.523 27.5301 165.018 29.4992C169.469 29.4992 173.426 29.4992 178.371 29.4992C176.393 33.9298 172.436 31.9606 169.469 32.4529C166.996 32.9452 164.029 30.9761 162.545 34.422C161.061 38.8526 158.588 43.7755 161.556 48.206C164.523 52.1443 166.996 47.2214 170.953 45.7446C168.974 50.6674 166.007 53.1289 162.05 53.1289C157.105 53.6211 156.115 49.6829 156.115 45.2523C153.148 47.7137 150.675 50.1751 147.708 52.1443C145.729 53.6211 143.257 54.1134 140.784 52.6366C138.805 51.1597 138.311 48.6983 138.805 46.2369C139.3 43.2832 139.795 40.3295 140.289 37.3757C140.289 35.8989 140.289 34.422 142.267 34.422C144.74 34.422 144.246 36.3912 144.246 37.868C143.751 40.3295 143.257 42.7909 143.257 45.2523C143.257 46.7292 142.267 48.6983 143.751 49.6829C145.235 50.6674 146.719 49.6829 148.202 48.6983C151.664 45.7446 154.632 42.7909 156.61 39.3449C159.577 33.9298 158.588 32.9452 153.148 32.9452C154.632 30.976 164.523 24.0841 166.501 24.0841Z" fill="#FFFA00"/>
<path d="M192.714 47.2215C189.746 50.1752 185.79 52.6366 181.339 53.1289C175.404 53.6212 171.942 50.6675 171.942 44.76C171.942 37.8681 177.382 31.9606 183.317 31.4684C185.79 31.4684 188.263 31.4684 189.252 33.9298C190.736 36.3912 189.252 38.8526 187.274 40.8218C185.295 42.7909 182.328 43.7755 179.36 44.76C178.371 45.2523 175.898 44.2678 176.393 46.7292C176.887 48.6983 177.877 49.6829 179.855 50.1752C184.306 50.6675 187.274 48.206 190.736 46.2369C192.714 45.7446 192.714 46.2369 192.714 47.2215Z" fill="#FFFA00"/>
<path d="M124.958 42.7909C123.474 45.7446 121.99 48.206 121.001 51.1598C120.506 52.6366 120.012 53.6212 118.034 53.6212C116.055 53.1289 116.055 51.652 116.55 50.1752C117.539 45.7446 118.034 41.3141 118.528 36.8835C118.528 34.9144 119.517 33.9298 121.496 34.4221C123.474 34.9144 122.979 36.3912 122.979 37.8681C122.979 39.8372 121.496 41.3141 121.99 42.7909C122.979 45.2523 122.979 41.8064 123.968 42.2986C124.463 41.8064 124.958 41.8064 124.958 42.7909Z" fill="#FFFA00"/>
<path d="M98.7452 58.0517C100.723 58.0517 103.196 58.544 103.196 60.5131C103.691 62.4823 101.713 64.9437 102.207 67.4051C102.207 67.4051 100.723 67.8974 100.229 66.9128C99.2398 64.9437 97.756 62.9746 97.2615 67.4051C97.2615 68.3897 96.2723 69.3743 95.2832 68.3897C93.3049 65.9283 94.294 62.9746 94.7886 60.5131C94.7886 57.5594 97.2615 58.0517 98.7452 58.0517Z" fill="white"/>
<path d="M145.73 68.3897C143.751 65.9283 144.74 62.9746 144.74 60.5131C145.235 56.5749 148.202 58.0517 150.181 58.544C152.159 59.0363 154.632 60.5131 152.654 62.9746C151.665 63.9591 153.148 70.3588 148.202 64.9437C147.213 63.4669 147.708 67.4051 145.73 68.3897Z" fill="white"/>
<path d="M153.148 21.6227C151.664 26.0532 148.202 28.5147 144.74 30.9761C143.257 31.9607 141.773 33.4375 140.289 31.4684C139.3 29.4992 139.795 27.0378 142.267 26.5455C146.224 25.561 149.686 23.0995 153.148 21.6227Z" fill="#D82927"/>
<path d="M140.784 63.4669C140.289 66.4206 138.805 68.3897 135.343 68.3897C131.881 68.3897 130.398 65.9283 130.398 62.9746C130.398 60.0209 132.376 58.0517 135.343 58.0517C139.3 58.0517 140.784 60.0209 140.784 63.4669Z" fill="white"/>
<path d="M71.0492 68.3897C71.0492 65.9283 71.0492 63.4669 71.0492 61.4977C71.0492 59.5286 71.0492 58.0517 73.5221 58.0517C75.5003 58.0517 77.9732 58.0517 78.9623 60.5132C79.9515 62.9746 77.9732 64.4514 75.9949 64.4514C73.0275 64.4514 74.0166 67.4051 71.0492 68.3897Z" fill="white"/>
<path d="M46.3206 65.436C48.2989 64.4514 49.7826 67.4051 51.7609 65.436C50.7718 62.9746 45.3315 63.9591 46.3206 60.0209C46.8152 58.0517 48.7935 57.5594 50.7718 58.0517C52.2555 58.544 53.7392 59.0363 53.2446 60.5131C52.75 61.99 51.2663 59.5286 50.2772 61.0054C51.2663 62.4823 54.7283 62.9746 54.2338 65.436C53.7392 66.9128 52.75 67.8974 50.7718 68.3897C48.2989 68.3897 46.8152 67.8974 46.3206 65.436Z" fill="white"/>
<path d="M107.648 65.436C110.12 64.9437 111.604 67.4051 113.088 65.9283C113.088 63.9591 111.604 64.4514 110.615 63.9591C109.131 62.9746 106.658 61.99 108.637 59.5286C110.12 57.5594 112.099 57.5594 114.572 59.0363C115.561 59.5286 116.55 60.5131 114.572 61.4977C114.077 61.4977 112.099 61.4977 114.077 62.9746C117.044 64.4514 117.044 66.4205 114.572 68.3897C111.604 69.3742 109.131 68.3897 107.648 65.436Z" fill="white"/>
<path d="M59.1795 57.5594C61.1578 59.5286 60.1687 61.4977 60.6632 63.4668C60.6632 64.9437 61.1578 65.9283 62.6415 65.9283C64.1252 65.9283 64.1252 64.4514 64.1252 63.4668C64.6198 61.4977 63.1361 59.5286 66.1035 57.5594C66.1035 61.4977 67.5872 64.4514 65.1144 67.4051C63.6307 68.882 61.1578 68.882 59.6741 67.4051C57.2012 64.4514 57.6958 61.4977 59.1795 57.5594Z" fill="white"/>
<path d="M124.958 42.7909C124.463 42.2986 124.463 41.8063 123.968 41.3141C125.947 37.3758 128.914 33.9298 132.871 31.9607C134.354 30.9761 135.838 31.4684 137.322 32.4529C137.816 32.9452 137.816 33.9298 137.322 34.4221C136.333 35.4066 135.838 36.3912 133.86 35.8989C128.914 35.4066 127.925 40.3295 124.958 42.7909Z" fill="#FFFA00"/>
<path d="M85.3917 65.9283C87.37 65.9283 89.3483 66.4206 91.8211 66.4206C88.8537 69.3743 85.3917 68.882 83.908 67.8974C81.4351 65.9283 81.9297 61.4977 83.4134 59.0363C84.8971 56.5749 88.3591 58.0517 91.3266 58.0517C89.8428 61.0054 87.37 59.5286 85.3917 60.0209C85.3917 61.99 84.4025 63.9591 85.3917 65.9283Z" fill="white"/>
<path d="M160.567 66.4206C162.051 66.4206 164.029 65.436 165.513 67.8974C162.545 68.882 159.578 69.8665 157.599 67.4051C156.116 65.436 156.116 61.4977 157.599 59.0363C159.083 56.5749 162.545 58.0517 165.513 58.0517C163.534 61.0054 161.061 60.0209 159.083 60.5131C160.567 62.4823 157.105 64.9437 160.567 66.4206Z" fill="white"/>
<path d="M192.714 47.2215C192.219 46.7292 191.725 46.2369 191.23 45.7446C194.198 42.2986 197.165 39.3449 199.638 35.8989C199.638 41.314 196.176 44.76 192.714 47.2215Z" fill="#FFFA00"/>
<path d="M160.567 66.4206C158.094 65.436 157.599 63.9591 158.588 60.5131L159.083 60.0208H159.577C160.072 62.9746 163.039 60.5131 164.029 62.4823C164.523 65.436 158.589 61.4977 160.567 66.4206Z" fill="white"/>
<path d="M85.3917 65.9283C82.9188 64.4514 84.4024 62.4823 84.4024 60.5131H85.3915C85.8861 63.4668 88.8535 61.0054 89.8427 62.9745C89.3481 64.9437 84.8971 62.4823 85.3917 65.9283Z" fill="white"/>
<path d="M121.99 60.0209C121.001 60.0209 119.517 60.0209 120.012 59.0363C120.012 57.0672 121.99 58.0517 122.979 58.0517C124.463 58.0517 126.441 57.0672 127.431 59.0363C127.925 60.0209 126.441 60.0209 125.452 60.0209C123.969 60.0209 122.979 59.5286 121.99 60.0209Z" fill="white"/>
<path d="M121.99 60.0209C122.979 58.544 124.463 58.544 125.452 60.0209C123.474 62.4823 125.947 65.436 123.474 67.8974C121.001 65.9283 123.474 62.4823 121.99 60.0209Z" fill="white"/>
<path d="M89.8428 50.1752C89.3483 52.1443 88.3591 53.6212 85.8863 53.6212C84.8971 53.6212 83.908 53.1289 83.908 52.1443C84.4025 50.1752 86.3808 49.1906 88.3591 48.6983C89.8428 48.206 89.8428 49.1906 89.8428 50.1752Z" fill="#28166F"/>
<path d="M186.285 36.3912C185.295 40.3295 182.328 41.8063 178.866 42.7909C177.382 43.2832 176.888 42.2986 177.382 40.8218C178.371 37.3758 180.35 34.4221 184.306 33.9298C185.79 33.4375 186.285 34.9144 186.285 36.3912Z" fill="#28166F"/>
<path d="M135.838 60.0208C137.816 60.0208 138.311 61.4977 138.311 63.4668C138.311 65.436 137.322 66.4205 135.343 65.9283C133.365 65.436 133.365 63.9591 133.365 62.4823C133.365 61.0054 133.86 60.0208 135.838 60.0208Z" fill="#28166F"/>
<path d="M73.7183 61.4247C73.7183 60.8687 74.1689 60.4181 74.7248 60.4181H75.9065C76.4624 60.4181 76.9131 60.8687 76.9131 61.4247C76.9131 61.9806 76.4624 62.4312 75.9065 62.4312H74.7248C74.1689 62.4312 73.7183 61.9806 73.7183 61.4247Z" fill="#28166F"/>
<path d="M97.4155 61.2733C97.4155 60.7174 97.8662 60.2667 98.4221 60.2667H99.6038C100.16 60.2667 100.61 60.7174 100.61 61.2733C100.61 61.8292 100.16 62.2798 99.6038 62.2798H98.4221C97.8662 62.2798 97.4155 61.8292 97.4155 61.2733Z" fill="#28166F"/>
<path d="M147.34 61.4051C147.34 60.8492 147.79 60.3986 148.346 60.3986H149.528C150.084 60.3986 150.535 60.8492 150.535 61.4051C150.535 61.961 150.084 62.4117 149.528 62.4117H148.346C147.79 62.4117 147.34 61.961 147.34 61.4051Z" fill="#28166F"/>
</svg>
